# xmcd
#
# Track frame offsets:
#	150
#	14788
#	27754
#	42838
#	56445
#	70944
#	81904
#	91582
#	108421
#	124619
#	140761
#	151610
#	168143
#	180803
#
# Disc length: 2525 seconds
#
# Revision: 0
# Processed by: cddbd v1.5.2PL0 Copyright (c) Steve Scherf et al.
# Submitted via: EasyCDDAExtractor 16.0.8.2
#
DISCID=a309db0e
DTITLE=Συλλογικός δίσκος - Σεργιάνι στα νησιά μας 1-κασ. 10371
DYEAR=1990
DGENRE=Παραδοσιακή
TTITLE0=Χατζηδάκη Αιμιλία - Μέσ' στου Αιγαίου τα νησιά
TTITLE1=Καραμπεσίνη Άννα-Σαρρή Έφη - Η βράκα (Σαράντα πήχες δίμυτο)
TTITLE2=Καβακοπούλου Ειρήνη - Αμοργιανό είν' το νερό [συρτός]
TTITLE3=Ροδίτη Νικολέττα-Ροδίτη Ελισάβετ - Εγώ είμαι ενός ψαρά παιδί [συρτός]
TTITLE4=Χατζηδάκη Άννα - Χίλιες φορές μεσάνυχτα [συρτός]
TTITLE5=Σπανού Θάλεια - Περήφανα νησιά μου [καλαματιανός]
TTITLE6=Καραμπεσίνη Άννα-Σαρρή Έφη - Ο μηχανικός [Δωδεκανήσου]
TTITLE7=Καραμπεσίνη Άννα-Σαρρή Έφη - Έλα μπρόβαλε [συρτός]
TTITLE8=Χατζηδάκη Αιμιλία - Μπρατσέρα [Δωδεκανήσου]
TTITLE9=Καβακοπούλου Ειρήνη - Την θάλασσα την αγαπώ [ίσιος χορός]
TTITLE10=Καραμπεσίνη Άννα-Σαρρή Έφη - Εστολίσαν το σπερβέρι
TTITLE11=Πασαλάρη Σούλα - Θάλασσα λεβεντοπνίχτρα
TTITLE12=Καραθανάση Ξανθίππη - Ξεκινά μιά ψαροπούλα [συρτός]
TTITLE13=Άνευ ερμηνευτού - Γαστουριώτικος χορός [οργανικό]
EXTD=
EXTT0=
EXTT1=
EXTT2=
EXTT3=
EXTT4=
EXTT5=
EXTT6=
EXTT7=
EXTT8=
EXTT9=
EXTT10=
EXTT11=
EXTT12=
EXTT13=
PLAYORDER=
